<svg width="32" height="32" viewBox="0 0 32 32" fill="none" xmlns="http://www.w3.org/2000/svg">
<g clip-path="url(#clip0_93_228)">
<path fill-rule="evenodd" clip-rule="evenodd" d="M17.9253 32H3.62439C3.27955 32 3 31.7205 3 31.3756V0.62439C3 0.279548 3.27955 0 3.62439 0H27.5854C27.9302 0 28.2098 0.279549 28.2098 0.62439V7.8062C28.2098 8.15105 27.9302 8.43059 27.5854 8.43059H15.5333C15.1884 8.43059 14.9089 8.71014 14.9089 9.05499V11.4732C14.9089 11.818 15.1884 12.0976 15.5333 12.0976H21.1854C21.5302 12.0976 21.8098 12.3771 21.8098 12.722V19.1786C21.8098 19.5234 21.5302 19.8029 21.1854 19.8029H18.9453V16.9368C18.9453 15.7299 17.9669 14.7515 16.7599 14.7515H11.9755C10.7686 14.7515 9.79015 15.7299 9.79015 16.9368V21.7213C9.79015 22.9282 10.7686 23.9066 11.9755 23.9066H15.4505L17.8344 25.8718V31.3744C17.8344 31.5918 17.8662 31.8018 17.9253 32Z" fill="#3BB57B"/>
<path d="M11.3506 16.9359C11.3506 16.5911 11.6301 16.3115 11.975 16.3115H16.7594C17.1042 16.3115 17.3838 16.5911 17.3838 16.9359V20.9825L20.5 23.5514H27.6191C27.964 23.5514 28.2435 23.8309 28.2435 24.1757V31.3734C28.2435 31.7183 27.964 31.9978 27.6191 31.9978H20.0192C19.6744 31.9978 19.3948 31.7183 19.3948 31.3734V25.1346L16.0104 22.3447H11.975C11.6301 22.3447 11.3506 22.0652 11.3506 21.7203V16.9359Z" fill="#87DEB5" stroke="#3BB57B" stroke-width="0.780488"/>
</g>
<defs>
<clipPath id="clip0_93_228">
<rect width="32" height="32" fill="white"/>
</clipPath>
</defs>
</svg>
