<svg width="32" height="32" viewBox="0 0 32 32" fill="none" xmlns="http://www.w3.org/2000/svg">
<path fill-rule="evenodd" clip-rule="evenodd" d="M17.7272 28H6.99763C6.7414 28 6.53369 27.7923 6.53369 27.5361V4.46394C6.53369 4.20771 6.7414 4 6.99763 4H24.9771C25.2333 4 25.441 4.20771 25.441 4.46394V9.85901C25.441 10.1152 25.2333 10.3229 24.9771 10.3229H15.9293C15.673 10.3229 15.4653 10.5307 15.4653 10.7869V12.6092C15.4653 12.8655 15.673 13.0732 15.9293 13.0732H20.1771C20.4333 13.0732 20.641 13.2809 20.641 13.5371V18.3883C20.641 18.6445 20.4333 18.8522 20.1771 18.8522H18.4923V16.7028C18.4923 15.7976 17.7585 15.0638 16.8533 15.0638H13.265C12.3598 15.0638 11.6259 15.7976 11.6259 16.7028V20.2911C11.6259 21.1963 12.3598 21.9301 13.265 21.9301H15.8712L17.6591 23.404V27.5309C17.6591 27.6939 17.6829 27.8514 17.7272 28Z" fill="#3BB57B"/>
<path d="M12.7964 16.7017C12.7964 16.4431 13.006 16.2334 13.2647 16.2334H16.853C17.1116 16.2334 17.3213 16.4431 17.3213 16.7017V19.7366L19.6585 21.6633H24.9978C25.2564 21.6633 25.4661 21.8729 25.4661 22.1316V27.5298C25.4661 27.7885 25.2564 27.9981 24.9978 27.9981H19.2979C19.0392 27.9981 18.8296 27.7885 18.8296 27.5298V22.8507L16.2913 20.7583H13.2647C13.006 20.7583 12.7964 20.5486 12.7964 20.29V16.7017Z" fill="#87DEB5" stroke="#3BB57B" stroke-width="0.579925"/>
</svg>
